<?xml version="1.0" encoding="UTF-8"?>
<svg version="1.1" xmlns="http://www.w3.org/2000/svg" width="406" height="406">
<path d="M0 0 C2.52623425 2.26618676 5.00087843 4.58286058 7.45410156 6.92773438 C8.43524215 7.86418935 9.42154622 8.79526606 10.41308594 9.72070312 C40.09174828 37.46252461 58.16046105 75.13468464 66.93359375 114.33984375 C67.11293457 115.10393555 67.29227539 115.86802734 67.47705078 116.65527344 C78.51921013 165.53903347 65.89174713 220.41391909 40.0078125 262.46875 C32.44441896 274.09424668 23.92000645 284.84364939 14.34570312 294.86035156 C13.40924815 295.84149215 12.47817144 296.82779622 11.55273438 297.81933594 C-16.18908711 327.49799828 -53.86124714 345.56671105 -93.06640625 354.33984375 C-93.83049805 354.51918457 -94.59458984 354.69852539 -95.38183594 354.88330078 C-144.26559597 365.92546013 -199.14048159 353.29799713 -241.1953125 327.4140625 C-252.82080918 319.85066896 -263.57021189 311.32625645 -273.58691406 301.75195312 C-274.56805465 300.81549815 -275.55435872 299.88442144 -276.54589844 298.95898438 C-306.22456078 271.21716289 -324.29327355 233.54500286 -333.06640625 194.33984375 C-333.24574707 193.57575195 -333.42508789 192.81166016 -333.60986328 192.02441406 C-344.65202263 143.14065403 -332.02455963 88.26576841 -306.140625 46.2109375 C-298.57723146 34.58544082 -290.05281895 23.83603811 -280.47851562 13.81933594 C-279.54206065 12.83819535 -278.61098394 11.85189128 -277.68554688 10.86035156 C-249.94372539 -18.81831078 -212.27156536 -36.88702355 -173.06640625 -45.66015625 C-172.30231445 -45.83949707 -171.53822266 -46.01883789 -170.75097656 -46.20361328 C-111.76166835 -59.52847496 -44.81412062 -39.3978206 0 0 Z " fill="#DAE8B0" transform="translate(336.06640625,48.66015625)"/>
<path d="M0 0 C0.66 0 1.32 0 2 0 C2.90791761 2.72375283 3.2076897 4.71312737 3.39453125 7.54296875 C4.15712674 17.88468799 5.34677263 27.55042007 8.11328125 37.546875 C9.2600764 42.01280854 9.77898123 46.40280963 10 51 C10.66 51 11.32 51 12 51 C12.185625 51.804375 12.185625 51.804375 12.375 52.625 C14.67358763 61.35963298 18.80279459 69.06140272 23 77 C23.50660156 77.97912354 23.50660156 77.97912354 24.0234375 78.97802734 C46.59938452 122.43453776 86.14436072 154.91756752 132.49511719 170.21826172 C147.36515395 174.85898859 162.56114204 177.20509585 178 179 C178 179.33 178 179.66 178 180 C177.42781738 180.06993164 176.85563477 180.13986328 176.26611328 180.21191406 C133.68507123 185.49947808 95.13842188 199.49597883 63.17578125 229.01171875 C61.42998626 230.60706821 59.66711898 232.09935732 57.8125 233.5625 C54.14163827 236.7439135 51.12354452 240.29001926 48 244 C47.22398437 244.88816406 46.44796875 245.77632812 45.6484375 246.69140625 C39.32792777 254.03924342 34.01031164 261.71170164 29 270 C28.64663574 270.57508301 28.29327148 271.15016602 27.92919922 271.74267578 C23.23451027 279.41839473 19.51444354 287.12672318 16.32421875 295.52734375 C15.44566986 297.83126695 14.50013689 300.11080691 13.48828125 302.359375 C11.74981106 306.61201075 10.60851806 310.86246512 9.5 315.3125 C8.22332921 320.35198997 6.94226215 325.3308262 5.25 330.25 C3.54374936 335.63565145 3.49667673 341.17475069 3.30859375 346.77734375 C3 350 3 350 1 353 C-0.12470864 350.75058272 -0.23825836 349.21092942 -0.4296875 346.7109375 C-0.50316406 345.85113281 -0.57664063 344.99132812 -0.65234375 344.10546875 C-0.79883184 342.30906223 -0.93961648 340.51217994 -1.07421875 338.71484375 C-1.58092591 332.93494683 -2.8323341 328.37352967 -5 323 C-5.34888221 321.26050276 -5.64813662 319.50957451 -5.875 317.75 C-6.93318893 311.38322996 -9.34107862 305.84802043 -12 300 C-12.68812046 298.45861017 -13.37567327 296.91696673 -14.0625 295.375 C-14.37832031 294.66988281 -14.69414062 293.96476562 -15.01953125 293.23828125 C-20 281.8685259 -20 281.8685259 -20 279 C-20.66 279 -21.32 279 -22 279 C-22.41121094 277.98164063 -22.82242188 276.96328125 -23.24609375 275.9140625 C-29.4414947 261.49554317 -40.67753426 247.68953287 -52 237 C-52.76828125 236.22785156 -53.5365625 235.45570313 -54.328125 234.66015625 C-57.31048745 231.69087434 -60.35580289 228.80293767 -63.4375 225.9375 C-64.25831055 225.1630957 -64.25831055 225.1630957 -65.09570312 224.37304688 C-68.53177059 221.18096053 -72.03774003 218.53751032 -76 216 C-76.96292969 215.30003906 -77.92585938 214.60007813 -78.91796875 213.87890625 C-94.97399818 202.36072182 -113.62281483 193.71517387 -132.5234375 188.05078125 C-136 187 -136 187 -138.51171875 185.94921875 C-141.75251107 184.71293534 -145.03356782 184.09029352 -148.4375 183.5 C-149.15671631 183.37326904 -149.87593262 183.24653809 -150.61694336 183.1159668 C-160.34216883 181.49492478 -170.17697234 180.76341934 -180 180 C-180 179.67 -180 179.34 -180 179 C-179.23034912 178.93006836 -178.46069824 178.86013672 -177.66772461 178.78808594 C-157.03733539 176.94423201 -157.03733539 176.94423201 -137 172 C-135.36893872 171.49983508 -133.73739041 171.00125678 -132.10546875 170.50390625 C-108.65087637 163.19571669 -88.36508834 152.00722197 -69 137 C-67.52235854 135.91458724 -66.04336822 134.83100622 -64.5625 133.75 C-60.76593454 130.90651425 -57.54089408 127.65503438 -54.3125 124.1875 C-53 123 -53 123 -51 123 C-50.5978125 121.7934375 -50.5978125 121.7934375 -50.1875 120.5625 C-49.795625 119.716875 -49.40375 118.87125 -49 118 C-48.01 117.67 -47.02 117.34 -46 117 C-44.92680968 115.13075196 -44.92680968 115.13075196 -44 113 C-43.17208859 111.82196524 -42.31229814 110.66583847 -41.42578125 109.53125 C-40.9261084 108.88285156 -40.42643555 108.23445313 -39.91162109 107.56640625 C-39.12005615 106.54353516 -39.12005615 106.54353516 -38.3125 105.5 C-33.77185398 99.57091446 -29.82972865 93.65660683 -26.3046875 87.0625 C-25.65886719 86.0415625 -25.65886719 86.0415625 -25 85 C-24.34 85 -23.68 85 -23 85 C-22.89429688 84.28328125 -22.78859375 83.5665625 -22.6796875 82.828125 C-21.93164324 79.71557304 -20.7439583 77.50464547 -19.125 74.75 C-16.41137481 69.92505783 -14.604024 65.27176181 -13 60 C-12.53252522 58.70405602 -12.0533821 57.41225997 -11.5625 56.125 C-11.31628906 55.47273438 -11.07007813 54.82046875 -10.81640625 54.1484375 C-10.22405514 52.58961878 -9.6270968 51.03254833 -9.02734375 49.4765625 C-2.97156061 33.4045601 -0.99862972 17.05554438 0 0 Z " fill="#5087D2" transform="translate(202,25)"/>
<path d="M0 0 C0.66 0 1.32 0 2 0 C2.9731681 2.9195043 3.1929546 5.05444951 3.31640625 8.10546875 C3.35830078 9.08837891 3.40019531 10.07128906 3.44335938 11.08398438 C3.48267578 12.10814453 3.52199219 13.13230469 3.5625 14.1875 C3.60568359 15.22326172 3.64886719 16.25902344 3.69335938 17.32617188 C3.79944366 19.8839819 3.90150146 22.44188845 4 25 C3.67 25 3.34 25 3 25 C2.34 22.69 1.68 20.38 1 18 C0.34 20.31 -0.32 22.62 -1 25 C-1.97963374 21.82662906 -2.00148074 19.30840242 -1.66015625 16.015625 C-1.56669922 15.08105469 -1.47324219 14.14648438 -1.37695312 13.18359375 C-1.27318359 12.21550781 -1.16941406 11.24742188 -1.0625 10.25 C-0.96259766 9.26644531 -0.86269531 8.28289063 -0.75976562 7.26953125 C-0.51267098 4.84565041 -0.25920287 2.42261093 0 0 Z " fill="#889AC3" transform="translate(202,25)"/>
<path d="M0 0 C1.10601562 -0.03867188 1.10601562 -0.03867188 2.234375 -0.078125 C4.25 0.25 4.25 0.25 7.25 3.25 C0.98 2.92 -5.29 2.59 -11.75 2.25 C-11.75 1.92 -11.75 1.59 -11.75 1.25 C-7.82808555 0.58244009 -3.97870589 0.13023587 0 0 Z " fill="#A890BA" transform="translate(33.75,202.75)"/>
<path d="M0 0 C0.66 0 1.32 0 2 0 C3.00496852 3.01490557 3.10335303 5.04181692 3.0625 8.1875 C3.05347656 9.08855469 3.04445312 9.98960938 3.03515625 10.91796875 C3.02355469 11.60503906 3.01195312 12.29210938 3 13 C2.01 12.67 1.02 12.34 0 12 C0 8.04 0 4.08 0 0 Z " fill="#ADBDBA" transform="translate(202,25)"/>
<path d="M0 0 C3.63 0.33 7.26 0.66 11 1 C11 1.33 11 1.66 11 2 C5.06 2.495 5.06 2.495 -1 3 C-0.67 2.01 -0.34 1.02 0 0 Z " fill="#48B1D6" transform="translate(369,203)"/>
</svg>
